<?xml version="1.0" standalone="no"?><!DOCTYPE svg PUBLIC "-//W3C//DTD SVG 1.1//EN" "http://www.w3.org/Graphics/SVG/1.1/DTD/svg11.dtd"><svg class="icon" width="16px" height="16.00px" viewBox="0 0 1024 1024" version="1.1" xmlns="http://www.w3.org/2000/svg"><path fill="#ffffff" d="M669.12 209.472V0H64v1024h837.76V232.704h-209.408a23.232 23.232 0 0 1-23.232-23.232z m11.584 512.96H285.12a23.232 23.232 0 1 1 0-46.528h395.584a23.296 23.296 0 1 1 0 46.528z m0-155.136H285.12a23.232 23.232 0 1 1 0-46.528h395.584a23.296 23.296 0 1 1 0 46.528zM704 381.056a23.232 23.232 0 0 1-23.296 23.36H285.12a23.232 23.232 0 1 1 0-46.592h395.584c12.864 0 23.296 10.432 23.296 23.296z"  /><path fill="#ffffff" d="M715.648 32.896V186.24h153.28L715.648 32.896"  /></svg>