<?xml version="1.0" encoding="UTF-8"?>
<!DOCTYPE svg PUBLIC "-//W3C//DTD SVG 1.1//EN" "http://www.w3.org/Graphics/SVG/1.1/DTD/svg11.dtd">
<svg xmlns="http://www.w3.org/2000/svg" version="1.1" width="429px" height="200px" style="shape-rendering:geometricPrecision; text-rendering:geometricPrecision; image-rendering:optimizeQuality; fill-rule:evenodd; clip-rule:evenodd" xmlns:xlink="http://www.w3.org/1999/xlink">
<g><path style="opacity:0.008" fill="#f7fcff" d="M 200.5,-0.5 C 202.833,-0.5 205.167,-0.5 207.5,-0.5C 207.953,0.458367 208.619,1.2917 209.5,2C 219.5,2.33333 229.5,2.66667 239.5,3C 240.337,4.01127 240.67,5.17793 240.5,6.5C 230.161,6.33351 219.828,6.50017 209.5,7C 208.182,8.90842 206.348,9.74176 204,9.5C 201.502,9.08281 199.002,8.74947 196.5,8.5C 196.5,7.5 196.5,6.5 196.5,5.5C 191.936,4.62874 187.27,4.62874 182.5,5.5C 182.804,4.85013 183.137,4.18346 183.5,3.5C 188.467,2.67105 193.467,2.17105 198.5,2C 199.381,1.2917 200.047,0.458367 200.5,-0.5 Z"/></g>
<g><path style="opacity:0.036" fill="#def1ff" d="M 240.5,6.5 C 241.051,9.80673 241.384,13.1401 241.5,16.5C 237.797,17.1187 233.797,17.452 229.5,17.5C 229.824,22.8237 227.49,26.157 222.5,27.5C 220.626,27.6102 219.126,26.9436 218,25.5C 217.774,22.905 217.274,20.405 216.5,18C 214.109,17.7132 211.776,17.2132 209.5,16.5C 201.269,17.2717 192.602,17.4384 183.5,17C 182.956,16.2828 182.289,15.7828 181.5,15.5C 181.833,12.1667 182.167,8.83333 182.5,5.5C 187.27,4.62874 191.936,4.62874 196.5,5.5C 196.5,6.5 196.5,7.5 196.5,8.5C 199.002,8.74947 201.502,9.08281 204,9.5C 206.348,9.74176 208.182,8.90842 209.5,7C 219.828,6.50017 230.161,6.33351 240.5,6.5 Z"/></g>
<g><path style="opacity:0.069" fill="#b5dffd" d="M 181.5,15.5 C 182.289,15.7828 182.956,16.2828 183.5,17C 192.602,17.4384 201.269,17.2717 209.5,16.5C 211.776,17.2132 214.109,17.7132 216.5,18C 217.274,20.405 217.774,22.905 218,25.5C 219.126,26.9436 220.626,27.6102 222.5,27.5C 227.49,26.157 229.824,22.8237 229.5,17.5C 233.797,17.452 237.797,17.1187 241.5,16.5C 242.094,22.2668 243.094,27.9335 244.5,33.5C 243.662,33.8417 243.328,34.5084 243.5,35.5C 226.825,35.0996 210.159,34.433 193.5,33.5C 188.799,33.592 184.132,33.9254 179.5,34.5C 178.167,34.5 176.833,34.5 175.5,34.5C 176.531,33.7515 177.698,33.0848 179,32.5C 179.917,26.8321 180.75,21.1655 181.5,15.5 Z"/></g>
<g><path style="opacity:0.094" fill="#9dd5fd" d="M 243.5,35.5 C 243.833,35.5 244.167,35.5 244.5,35.5C 244.833,36.8333 245.167,38.1667 245.5,39.5C 245.5,41.5 245.5,43.5 245.5,45.5C 244.819,43.8415 243.985,42.1749 243,40.5C 239.737,40.9039 236.57,40.9039 233.5,40.5C 231.627,40.4823 231.294,40.9823 232.5,42C 229.167,42.3333 225.833,42.6667 222.5,43C 223.5,43.3333 224.5,43.6667 225.5,44C 220.166,44.5668 214.833,45.0668 209.5,45.5C 208.817,43.8235 207.483,43.1568 205.5,43.5C 205.845,40.512 204.512,39.1787 201.5,39.5C 198.488,39.1787 197.155,40.512 197.5,43.5C 195.901,43.2322 194.568,43.5655 193.5,44.5C 190.15,44.665 186.817,44.4983 183.5,44C 187.414,43.1034 187.248,42.6034 183,42.5C 181.408,42.6052 179.908,42.9386 178.5,43.5C 178.5,41.1667 178.5,38.8333 178.5,36.5C 178.833,35.8333 179.167,35.1667 179.5,34.5C 184.132,33.9254 188.799,33.592 193.5,33.5C 210.159,34.433 226.825,35.0996 243.5,35.5 Z"/></g>
<g><path style="opacity:0.011" fill="#ceb671" d="M 244.5,33.5 C 252.356,34.0462 260.023,35.0462 267.5,36.5C 266.85,36.8039 266.183,37.1373 265.5,37.5C 258.527,36.7095 251.527,36.0429 244.5,35.5C 244.167,35.5 243.833,35.5 243.5,35.5C 243.328,34.5084 243.662,33.8417 244.5,33.5 Z"/></g>
<g><path style="opacity:0.006" fill="#fbfdfe" d="M 168.5,36.5 C 171.833,36.5 175.167,36.5 178.5,36.5C 178.5,38.8333 178.5,41.1667 178.5,43.5C 177.523,46.2869 177.19,49.2869 177.5,52.5C 175.744,53.5521 175.077,55.2188 175.5,57.5C 169.274,57.3877 163.274,58.0543 157.5,59.5C 155.5,59.5 153.5,59.5 151.5,59.5C 149.118,57.9539 146.451,57.2872 143.5,57.5C 149.985,49.3402 157.651,42.6735 166.5,37.5C 167.492,37.6716 168.158,37.3382 168.5,36.5 Z"/></g>
<g><path style="opacity:0.004" fill="#d8b96b" d="M 267.5,36.5 C 268.552,36.3505 269.552,36.5172 270.5,37C 269.251,37.7401 268.251,37.5735 267.5,36.5 Z"/></g>
<g><path style="opacity:0.141" fill="#388dc6" d="M 175.5,34.5 C 176.833,34.5 178.167,34.5 179.5,34.5C 179.167,35.1667 178.833,35.8333 178.5,36.5C 175.167,36.5 171.833,36.5 168.5,36.5C 167.508,36.3284 166.842,36.6618 166.5,37.5C 158.625,37.63 150.792,38.2966 143,39.5C 141.5,39.3333 140,39.1667 138.5,39C 150.602,36.3365 162.936,34.8365 175.5,34.5 Z"/></g>
<g><path style="opacity:0.004" fill="#dbba69" d="M 284.5,38.5 C 282.801,38.6602 281.134,38.4935 279.5,38C 281.387,37.2204 283.054,37.3871 284.5,38.5 Z"/></g>
<g><path style="opacity:0.004" fill="#fcfffe" d="M 135.5,38.5 C 136.833,39.1667 136.833,39.1667 135.5,38.5 Z"/></g>
<g><path style="opacity:0.022" fill="#dbba69" d="M 284.5,38.5 C 305.182,40.2363 325.515,43.903 345.5,49.5C 345.5,50.1667 345.5,50.8333 345.5,51.5C 325.189,46.5059 304.855,42.1726 284.5,38.5 Z"/></g>
<g><path style="opacity:0.004" fill="#fefffe" d="M 245.5,39.5 C 255.394,44.6096 265.061,49.943 274.5,55.5C 265.213,54.1046 255.88,53.1046 246.5,52.5C 246.5,51.8333 246.5,51.1667 246.5,50.5C 246.634,48.7085 246.301,47.0418 245.5,45.5C 245.5,43.5 245.5,41.5 245.5,39.5 Z"/></g>
<g><path style="opacity:0.275" fill="#d3ecfe" d="M 209.5,45.5 C 209.664,48.1873 209.497,50.854 209,53.5C 208.692,54.3081 208.192,54.9747 207.5,55.5C 203.5,52.8333 199.5,52.8333 195.5,55.5C 194.914,55.2907 194.414,54.9574 194,54.5C 193.502,51.1832 193.335,47.8499 193.5,44.5C 194.568,43.5655 195.901,43.2322 197.5,43.5C 197.155,40.512 198.488,39.1787 201.5,39.5C 204.512,39.1787 205.845,40.512 205.5,43.5C 207.483,43.1568 208.817,43.8235 209.5,45.5 Z"/></g>
<g><path style="opacity:0.492" fill="#348ece" d="M 81.5,49.5 C 81.5,50.1667 81.5,50.8333 81.5,51.5C 81.8341,59.3223 78.1675,62.1556 70.5,60C 69.2899,58.9609 68.2899,57.7942 67.5,56.5C 67.5,55.8333 67.5,55.1667 67.5,54.5C 67.6663,47.1915 71.3329,44.6915 78.5,47C 79.3734,48.045 80.3734,48.8783 81.5,49.5 Z"/></g>
<g><path style="opacity:0.165" fill="#82c6f8" d="M 246.5,50.5 C 246.5,51.1667 246.5,51.8333 246.5,52.5C 246.5,53.5 246.5,54.5 246.5,55.5C 244.167,56.1667 241.833,56.8333 239.5,57.5C 237.13,55.4376 234.463,55.2709 231.5,57C 227.845,59.8118 225.179,63.3118 223.5,67.5C 226.549,72.3796 229.882,72.3796 233.5,67.5C 236.105,69.2358 236.105,71.0692 233.5,73C 229.789,73.1747 226.122,73.6747 222.5,74.5C 225.428,75.4841 228.428,75.8174 231.5,75.5C 227.366,76.4849 223.032,76.8182 218.5,76.5C 218.008,74.1815 217.008,72.1815 215.5,70.5C 210.351,64.5533 204.017,63.0533 196.5,66C 193.894,66.7918 191.894,68.2918 190.5,70.5C 188.11,72.2666 186.443,74.5999 185.5,77.5C 184.164,75.6932 182.497,74.1932 180.5,73C 180.833,72.6667 181.167,72.3333 181.5,72C 180.169,70.0007 178.335,68.1674 176,66.5C 175.517,65.552 175.351,64.552 175.5,63.5C 175.5,61.5 175.5,59.5 175.5,57.5C 175.077,55.2188 175.744,53.5521 177.5,52.5C 179.857,52.3367 182.19,52.5034 184.5,53C 186.032,53.6995 187.032,54.8662 187.5,56.5C 190.062,57.6409 192.728,58.4743 195.5,59C 194.5,59.3333 193.5,59.6667 192.5,60C 199.989,62.7326 207.656,63.2326 215.5,61.5C 215.5,60.5 215.5,59.5 215.5,58.5C 220.864,58.4313 225.198,56.4313 228.5,52.5C 230.917,51.9278 233.084,50.9278 235,49.5C 235.414,49.9574 235.914,50.2907 236.5,50.5C 237.711,49.7261 237.711,48.8928 236.5,48C 238.568,47.3131 240.568,47.4798 242.5,48.5C 243.192,47.9747 243.692,47.3081 244,46.5C 244.608,48.0664 245.442,49.3998 246.5,50.5 Z"/></g>
<g><path style="opacity:0.845" fill="#e18c24" d="M 359.5,54.5 C 358.833,54.5 358.5,54.8333 358.5,55.5C 355.482,57.463 352.149,57.963 348.5,57C 346.393,55.7365 345.393,53.9032 345.5,51.5C 345.5,50.8333 345.5,50.1667 345.5,49.5C 345.393,47.0968 346.393,45.2635 348.5,44C 357.173,42.1716 360.839,45.6716 359.5,54.5 Z"/></g>
<g><path style="opacity:0.022" fill="#dff3ff" d="M 135.5,39.5 C 117.537,43.1544 99.5371,47.1544 81.5,51.5C 81.5,50.8333 81.5,50.1667 81.5,49.5C 94.4447,46.5145 107.445,43.6812 120.5,41C 125.464,40.0878 130.464,39.5878 135.5,39.5 Z"/></g>
<g><path style="opacity:0.171" fill="#8ecefe" d="M 245.5,45.5 C 246.301,47.0418 246.634,48.7085 246.5,50.5C 245.442,49.3998 244.608,48.0664 244,46.5C 243.692,47.3081 243.192,47.9747 242.5,48.5C 240.568,47.4798 238.568,47.3131 236.5,48C 237.711,48.8928 237.711,49.7261 236.5,50.5C 235.914,50.2907 235.414,49.9574 235,49.5C 233.084,50.9278 230.917,51.9278 228.5,52.5C 225.198,56.4313 220.864,58.4313 215.5,58.5C 215.5,59.5 215.5,60.5 215.5,61.5C 207.656,63.2326 199.989,62.7326 192.5,60C 193.5,59.6667 194.5,59.3333 195.5,59C 192.728,58.4743 190.062,57.6409 187.5,56.5C 187.032,54.8662 186.032,53.6995 184.5,53C 182.19,52.5034 179.857,52.3367 177.5,52.5C 177.19,49.2869 177.523,46.2869 178.5,43.5C 179.908,42.9386 181.408,42.6052 183,42.5C 187.248,42.6034 187.414,43.1034 183.5,44C 186.817,44.4983 190.15,44.665 193.5,44.5C 193.335,47.8499 193.502,51.1832 194,54.5C 194.414,54.9574 194.914,55.2907 195.5,55.5C 199.5,52.8333 203.5,52.8333 207.5,55.5C 208.192,54.9747 208.692,54.3081 209,53.5C 209.497,50.854 209.664,48.1873 209.5,45.5C 214.833,45.0668 220.166,44.5668 225.5,44C 224.5,43.6667 223.5,43.3333 222.5,43C 225.833,42.6667 229.167,42.3333 232.5,42C 231.294,40.9823 231.627,40.4823 233.5,40.5C 236.57,40.9039 239.737,40.9039 243,40.5C 243.985,42.1749 244.819,43.8415 245.5,45.5 Z"/></g>
<g><path style="opacity:0.012" fill="#e1d5b1" d="M 246.5,52.5 C 255.88,53.1046 265.213,54.1046 274.5,55.5C 275.492,55.3284 276.158,55.6618 276.5,56.5C 275.9,57.8999 274.9,58.8999 273.5,59.5C 272.833,59.5 272.167,59.5 271.5,59.5C 269.052,58.5269 266.385,58.1936 263.5,58.5C 258.367,57.3351 253.034,56.6685 247.5,56.5C 247.5,55.8333 247.167,55.5 246.5,55.5C 246.5,54.5 246.5,53.5 246.5,52.5 Z"/></g>
<g><path style="opacity:0.17" fill="#dbb969" d="M 359.5,54.5 C 382.164,61.0759 401.997,72.4093 419,88.5C 423.237,93.6473 426.404,99.3139 428.5,105.5C 428.5,110.833 428.5,116.167 428.5,121.5C 420.337,140.117 406.67,153.117 387.5,160.5C 386.833,160.5 386.5,160.167 386.5,159.5C 399.269,152.898 410.435,144.231 420,133.5C 428.667,120.167 428.667,106.833 420,93.5C 410.787,82.9718 399.954,74.4718 387.5,68C 377.856,63.5169 368.189,59.3502 358.5,55.5C 358.5,54.8333 358.833,54.5 359.5,54.5 Z"/></g>
<g><path style="opacity:0.004" fill="#fefffe" d="M 276.5,56.5 C 279.331,57.0787 281.664,58.412 283.5,60.5C 281.833,60.5 280.167,60.5 278.5,60.5C 277.081,59.5489 275.415,59.2155 273.5,59.5C 274.9,58.8999 275.9,57.8999 276.5,56.5 Z"/></g>
<g><path style="opacity:0.046" fill="#3f5361" d="M 256.5,59.5 C 258.607,58.5318 260.941,58.1984 263.5,58.5C 266.385,58.1936 269.052,58.5269 271.5,59.5C 269.549,59.2267 268.049,59.8934 267,61.5C 266.586,61.0426 266.086,60.7093 265.5,60.5C 264.417,61.365 264.251,62.365 265,63.5C 266.586,64.376 268.086,65.376 269.5,66.5C 268.189,67.2575 267.689,68.2575 268,69.5C 270,70.8333 272,72.1667 274,73.5C 274.684,74.7839 274.517,75.9505 273.5,77C 288.831,91.6904 287.164,93.5237 268.5,82.5C 266.9,81.3181 266.567,79.9847 267.5,78.5C 265.972,77.1387 264.305,75.972 262.5,75C 263.167,74.6667 263.833,74.3333 264.5,74C 262.833,71.6667 261.167,69.3333 259.5,67C 260.167,65 261.5,63.6667 263.5,63C 261.423,61.295 259.09,60.1283 256.5,59.5 Z"/></g>
<g><path style="opacity:0.461" fill="#d6b567" d="M 256.5,171.5 C 255.909,170.849 255.243,170.182 254.5,169.5C 251.232,168.513 247.898,168.18 244.5,168.5C 248.5,167.833 252.5,167.167 256.5,166.5C 266.425,166.082 276.091,164.748 285.5,162.5C 289.078,162.451 292.411,161.785 295.5,160.5C 304.724,158.944 313.724,156.611 322.5,153.5C 325.327,152.892 327.993,151.892 330.5,150.5C 335.403,149.048 340.07,147.048 344.5,144.5C 348.864,142.656 352.864,140.323 356.5,137.5C 377.558,123.308 378.891,107.474 360.5,90C 356.52,86.8454 352.186,84.3454 347.5,82.5C 343.298,79.4207 338.632,77.0873 333.5,75.5C 328.697,73.2324 323.697,71.5658 318.5,70.5C 316.064,69.129 313.397,68.129 310.5,67.5C 303.663,65.1988 296.663,63.5321 289.5,62.5C 288.791,61.596 287.791,61.2627 286.5,61.5C 285.508,61.6716 284.842,61.3382 284.5,60.5C 287.005,61.1081 289.339,60.4414 291.5,58.5C 317.672,62.275 341.672,71.4416 363.5,86C 383.5,103.667 383.5,121.333 363.5,139C 341.6,153.417 317.6,162.75 291.5,167C 279.937,169.372 268.27,170.872 256.5,171.5 Z"/></g>
<g><path style="opacity:0.331" fill="#ade0fe" d="M 143.5,57.5 C 146.451,57.2872 149.118,57.9539 151.5,59.5C 148.997,60.3705 146.33,61.0372 143.5,61.5C 136.027,62.6606 128.694,64.3273 121.5,66.5C 119.5,66.8333 117.5,67.1667 115.5,67.5C 114.811,66.2264 113.977,66.2264 113,67.5C 111.583,66.9221 110.75,65.9221 110.5,64.5C 121.328,61.3765 132.328,59.0432 143.5,57.5 Z"/></g>
<g><path style="opacity:0.388" fill="#c5e4fa" d="M 239.5,57.5 C 238.685,59.7537 238.019,62.0871 237.5,64.5C 238.921,67.6594 239.921,70.9928 240.5,74.5C 237.572,75.4841 234.572,75.8174 231.5,75.5C 228.428,75.8174 225.428,75.4841 222.5,74.5C 226.122,73.6747 229.789,73.1747 233.5,73C 236.105,71.0692 236.105,69.2358 233.5,67.5C 229.882,72.3796 226.549,72.3796 223.5,67.5C 225.179,63.3118 227.845,59.8118 231.5,57C 234.463,55.2709 237.13,55.4376 239.5,57.5 Z"/></g>
<g><path style="opacity:0.166" fill="#84c8fa" d="M 232.5,58.5 C 237.944,60.4534 237.778,61.7867 232,62.5C 232.013,68.8855 230.18,69.7188 226.5,65C 228.706,62.9633 230.706,60.7966 232.5,58.5 Z"/></g>
<g><path style="opacity:0.091" fill="#0a1924" d="M 289.5,62.5 C 296.663,63.5321 303.663,65.1988 310.5,67.5C 310.826,70.2422 310.493,72.7422 309.5,75C 310.42,77.8349 311.42,80.6682 312.5,83.5C 310.913,85.4461 311.246,86.9461 313.5,88C 312.508,89.9306 312.175,92.0972 312.5,94.5C 312.818,95.6473 313.484,96.4806 314.5,97C 314.499,98.3988 314.165,99.8988 313.5,101.5C 313.977,102.478 314.643,103.311 315.5,104C 315.167,104.333 314.833,104.667 314.5,105C 315.167,106.667 315.833,108.333 316.5,110C 315.949,111.398 315.616,112.732 315.5,114C 316.167,114.667 316.833,115.333 317.5,116C 317.384,117.268 317.051,118.602 316.5,120C 317.167,120.333 317.833,120.667 318.5,121C 317.448,123.34 317.782,126.007 319.5,129C 318.248,131.196 318.581,133.196 320.5,135C 320.577,138.605 320.577,142.271 320.5,146C 321.308,146.308 321.975,146.808 322.5,147.5C 321.752,149.416 321.752,151.416 322.5,153.5C 313.724,156.611 304.724,158.944 295.5,160.5C 295.414,159.504 295.748,158.671 296.5,158C 295.643,157.311 294.977,156.478 294.5,155.5C 305.014,142.807 310.014,128.141 309.5,111.5C 309.376,101.501 307.542,91.8346 304,82.5C 301.882,77.9059 299.048,73.9059 295.5,70.5C 293.332,67.5001 290.666,65.0001 287.5,63C 288.094,62.5357 288.761,62.369 289.5,62.5 Z"/></g>
<g><path style="opacity:0.997" fill="#eff7fc" d="M 215.5,70.5 C 207.167,71.8333 198.833,71.8333 190.5,70.5C 191.894,68.2918 193.894,66.7918 196.5,66C 204.017,63.0533 210.351,64.5533 215.5,70.5 Z"/></g>
<g><path style="opacity:0.081" fill="#08141c" d="M 310.5,67.5 C 313.397,68.129 316.064,69.129 318.5,70.5C 318.196,71.1499 317.863,71.8165 317.5,72.5C 318.417,73.9705 319.417,75.4705 320.5,77C 320.507,78.5827 320.174,80.2494 319.5,82C 319.928,84.6287 320.928,86.962 322.5,89C 321.833,89.3333 321.167,89.6667 320.5,90C 321.274,92.405 321.774,94.905 322,97.5C 322.333,96.8333 322.667,96.1667 323,95.5C 322.382,98.8417 322.882,102.175 324.5,105.5C 322.198,106.999 322.531,108.332 325.5,109.5C 325.023,110.478 324.357,111.311 323.5,112C 324.939,112.991 325.939,114.324 326.5,116C 326.579,117.907 326.246,119.907 325.5,122C 326.833,127.667 328.167,133.333 329.5,139C 329.167,140 328.833,141 328.5,142C 331.167,142.667 331.167,143.333 328.5,144C 329.5,145 330.5,146 331.5,147C 330.663,148.011 330.33,149.178 330.5,150.5C 327.993,151.892 325.327,152.892 322.5,153.5C 321.752,151.416 321.752,149.416 322.5,147.5C 321.975,146.808 321.308,146.308 320.5,146C 320.577,142.271 320.577,138.605 320.5,135C 318.581,133.196 318.248,131.196 319.5,129C 317.782,126.007 317.448,123.34 318.5,121C 317.833,120.667 317.167,120.333 316.5,120C 317.051,118.602 317.384,117.268 317.5,116C 316.833,115.333 316.167,114.667 315.5,114C 315.616,112.732 315.949,111.398 316.5,110C 315.833,108.333 315.167,106.667 314.5,105C 314.833,104.667 315.167,104.333 315.5,104C 314.643,103.311 313.977,102.478 313.5,101.5C 314.165,99.8988 314.499,98.3988 314.5,97C 313.484,96.4806 312.818,95.6473 312.5,94.5C 312.175,92.0972 312.508,89.9306 313.5,88C 311.246,86.9461 310.913,85.4461 312.5,83.5C 311.42,80.6682 310.42,77.8349 309.5,75C 310.493,72.7422 310.826,70.2422 310.5,67.5 Z"/></g>
<g><path style="opacity:0.067" fill="#738490" d="M 247.5,56.5 C 253.034,56.6685 258.367,57.3351 263.5,58.5C 260.941,58.1984 258.607,58.5318 256.5,59.5C 256.915,62.0625 256.249,64.5625 254.5,67C 254.689,69.295 256.023,71.295 258.5,73C 258.167,73.3333 257.833,73.6667 257.5,74C 258.5,74.8333 259.5,75.6667 260.5,76.5C 259.098,77.8425 259.431,78.6758 261.5,79C 260.584,79.2784 259.918,79.7784 259.5,80.5C 256.193,79.9492 252.86,79.6159 249.5,79.5C 249.5,79.1667 249.5,78.8333 249.5,78.5C 248.669,71.1827 248.002,63.8494 247.5,56.5 Z"/></g>
<g><path style="opacity:0.115" fill="#a7dfff" d="M 67.5,54.5 C 67.5,55.1667 67.5,55.8333 67.5,56.5C 53.5826,61.69 40.2493,68.0233 27.5,75.5C 26.8333,75.5 26.5,75.1667 26.5,74.5C 39.1813,65.9935 52.8479,59.3269 67.5,54.5 Z"/></g>
<g><path style="opacity:0.474" fill="#317db1" d="M 113.5,68.5 C 112.972,69.7206 112.305,70.8873 111.5,72C 112.574,72.7387 113.241,73.7387 113.5,75C 113.14,76.6515 112.807,78.3182 112.5,80C 113.578,80.6739 114.245,81.6739 114.5,83C 114.196,85.6958 114.196,88.3625 114.5,91C 116.155,93.2467 116.488,95.5801 115.5,98C 116.564,100.794 117.897,103.461 119.5,106C 119.745,107.911 119.745,109.911 119.5,112C 121.419,113.804 121.752,115.804 120.5,118C 120.759,119.261 121.426,120.261 122.5,121C 122.167,123.333 121.833,125.667 121.5,128C 122.872,130.725 123.872,133.391 124.5,136C 124.167,137 123.833,138 123.5,139C 124.167,139.333 124.833,139.667 125.5,140C 124.268,146.536 124.268,153.036 125.5,159.5C 121.195,158.765 117.195,157.432 113.5,155.5C 112.728,148.743 111.395,141.577 109.5,134C 109.357,131.959 109.691,129.792 110.5,127.5C 109.833,126.833 109.167,126.167 108.5,125.5C 109.326,124.549 109.492,123.549 109,122.5C 108.346,123.696 107.846,123.696 107.5,122.5C 107.569,120.722 107.903,118.889 108.5,117C 105.673,108.347 104.34,99.8466 104.5,91.5C 103.935,88.4921 102.935,85.6588 101.5,83C 101.833,82 102.167,81 102.5,80C 101.174,77.7102 100.508,75.5435 100.5,73.5C 104.522,71.2661 108.856,69.5995 113.5,68.5 Z"/></g>
<g><path style="opacity:0.214" fill="#70b8ec" d="M 246.5,55.5 C 247.167,55.5 247.5,55.8333 247.5,56.5C 248.002,63.8494 248.669,71.1827 249.5,78.5C 243.007,77.4498 236.674,77.4498 230.5,78.5C 226.279,77.8076 222.613,78.8076 219.5,81.5C 219.524,80.2135 219.19,78.8802 218.5,77.5C 218.5,77.1667 218.5,76.8333 218.5,76.5C 223.032,76.8182 227.366,76.4849 231.5,75.5C 234.572,75.8174 237.572,75.4841 240.5,74.5C 239.921,70.9928 238.921,67.6594 237.5,64.5C 238.019,62.0871 238.685,59.7537 239.5,57.5C 241.833,56.8333 244.167,56.1667 246.5,55.5 Z"/></g>
<g><path style="opacity:0.138" fill="#648da9" d="M 175.5,57.5 C 175.5,59.5 175.5,61.5 175.5,63.5C 173.874,69.9279 173.207,76.5946 173.5,83.5C 172.391,83.5569 171.391,83.8902 170.5,84.5C 168.304,83.1881 165.97,82.0214 163.5,81C 164.167,80.3333 164.833,79.6667 165.5,79C 164.167,76.3333 164.167,73.6667 165.5,71C 164.833,69.6667 163.833,68.6667 162.5,68C 163.357,67.3109 164.023,66.4776 164.5,65.5C 163.359,64.5745 163.359,63.7412 164.5,63C 162.875,62.1475 162.542,61.1475 163.5,60C 161.527,59.5045 159.527,59.3379 157.5,59.5C 163.274,58.0543 169.274,57.3877 175.5,57.5 Z"/></g>
<g><path style="opacity:0.302" fill="#39749c" d="M 151.5,59.5 C 153.5,59.5 155.5,59.5 157.5,59.5C 159.527,59.3379 161.527,59.5045 163.5,60C 162.542,61.1475 162.875,62.1475 164.5,63C 163.359,63.7412 163.359,64.5745 164.5,65.5C 164.023,66.4776 163.357,67.3109 162.5,68C 163.833,68.6667 164.833,69.6667 165.5,71C 164.167,73.6667 164.167,76.3333 165.5,79C 164.833,79.6667 164.167,80.3333 163.5,81C 165.97,82.0214 168.304,83.1881 170.5,84.5C 165.457,85.6773 160.457,87.0107 155.5,88.5C 150.031,87.4934 145.031,88.8268 140.5,92.5C 139.785,90.2453 138.452,88.4119 136.5,87C 138.491,82.5767 140.825,78.9101 143.5,76C 140.774,74.0341 140.44,72.0341 142.5,70C 141.014,66.8956 141.347,64.0623 143.5,61.5C 146.33,61.0372 148.997,60.3705 151.5,59.5 Z"/></g>
<g><path style="opacity:0.06" fill="#060f16" d="M 318.5,70.5 C 323.697,71.5658 328.697,73.2324 333.5,75.5C 333.091,79.146 333.758,82.8127 335.5,86.5C 335.277,87.9667 334.944,89.4667 334.5,91C 335.167,91.6667 335.833,92.3333 336.5,93C 335.756,95.8506 335.756,98.5172 336.5,101C 338.891,101.691 338.891,102.691 336.5,104C 339.877,105.649 340.21,107.649 337.5,110C 338.061,111.676 339.061,113.009 340.5,114C 339.833,114.667 339.167,115.333 338.5,116C 339.845,118.324 340.178,120.658 339.5,123C 342.263,127.111 342.93,131.111 341.5,135C 343.335,135.928 343.668,137.094 342.5,138.5C 343.372,140.45 344.039,142.45 344.5,144.5C 340.07,147.048 335.403,149.048 330.5,150.5C 330.33,149.178 330.663,148.011 331.5,147C 330.5,146 329.5,145 328.5,144C 331.167,143.333 331.167,142.667 328.5,142C 328.833,141 329.167,140 329.5,139C 328.167,133.333 326.833,127.667 325.5,122C 326.246,119.907 326.579,117.907 326.5,116C 325.939,114.324 324.939,112.991 323.5,112C 324.357,111.311 325.023,110.478 325.5,109.5C 322.531,108.332 322.198,106.999 324.5,105.5C 322.882,102.175 322.382,98.8417 323,95.5C 322.667,96.1667 322.333,96.8333 322,97.5C 321.774,94.905 321.274,92.405 320.5,90C 321.167,89.6667 321.833,89.3333 322.5,89C 320.928,86.962 319.928,84.6287 319.5,82C 320.174,80.2494 320.507,78.5827 320.5,77C 319.417,75.4705 318.417,73.9705 317.5,72.5C 317.863,71.8165 318.196,71.1499 318.5,70.5 Z"/></g>
<g><path style="opacity:0.522" fill="#3381b8" d="M 100.5,73.5 C 100.508,75.5435 101.174,77.7102 102.5,80C 102.167,81 101.833,82 101.5,83C 102.935,85.6588 103.935,88.4921 104.5,91.5C 104.34,99.8466 105.673,108.347 108.5,117C 107.903,118.889 107.569,120.722 107.5,122.5C 107.846,123.696 108.346,123.696 109,122.5C 109.492,123.549 109.326,124.549 108.5,125.5C 109.167,126.167 109.833,126.833 110.5,127.5C 109.691,129.792 109.357,131.959 109.5,134C 111.395,141.577 112.728,148.743 113.5,155.5C 109.653,155.106 105.986,154.106 102.5,152.5C 102.611,151.883 102.944,151.383 103.5,151C 102.636,149.863 101.636,148.53 100.5,147C 102.891,146.309 102.891,145.309 100.5,144C 101.174,142.249 101.507,140.583 101.5,139C 99.8542,137.445 99.5209,135.779 100.5,134C 99.991,131.43 98.991,129.097 97.5,127C 97.7467,122.95 97.7467,118.95 97.5,115C 96.9211,111.861 95.9211,108.861 94.5,106C 96.9878,104.315 96.6545,102.981 93.5,102C 94.1667,101.667 94.8333,101.333 95.5,101C 94.1667,100.333 94.1667,99.6667 95.5,99C 94.6919,98.6924 94.0253,98.1924 93.5,97.5C 94.3107,94.4481 94.3107,91.6148 93.5,89C 92.8333,88.6667 92.1667,88.3333 91.5,88C 91.7099,84.0863 91.7099,80.253 91.5,76.5C 94.4018,75.2163 97.4018,74.2163 100.5,73.5 Z"/></g>
<g><path style="opacity:0.262" fill="#6ab0e2" d="M 175.5,63.5 C 175.351,64.552 175.517,65.552 176,66.5C 178.335,68.1674 180.169,70.0007 181.5,72C 181.167,72.3333 180.833,72.6667 180.5,73C 182.497,74.1932 184.164,75.6932 185.5,77.5C 185.672,78.4916 185.338,79.1583 184.5,79.5C 181.674,79.9977 179.34,81.3311 177.5,83.5C 176.167,83.5 174.833,83.5 173.5,83.5C 173.207,76.5946 173.874,69.9279 175.5,63.5 Z"/></g>
<g><path style="opacity:0.994" fill="#cde5f6" d="M 190.5,70.5 C 198.833,71.8333 207.167,71.8333 215.5,70.5C 217.008,72.1815 218.008,74.1815 218.5,76.5C 218.5,76.8333 218.5,77.1667 218.5,77.5C 214.956,79.2684 210.956,80.1018 206.5,80C 198.988,80.8218 191.655,80.6552 184.5,79.5C 185.338,79.1583 185.672,78.4916 185.5,77.5C 186.443,74.5999 188.11,72.2666 190.5,70.5 Z"/></g>
<g><path style="opacity:0.102" fill="#596c79" d="M 256.5,59.5 C 259.09,60.1283 261.423,61.295 263.5,63C 261.5,63.6667 260.167,65 259.5,67C 261.167,69.3333 262.833,71.6667 264.5,74C 263.833,74.3333 263.167,74.6667 262.5,75C 264.305,75.972 265.972,77.1387 267.5,78.5C 266.567,79.9847 266.9,81.3181 268.5,82.5C 265.273,82.3239 262.273,81.6572 259.5,80.5C 259.918,79.7784 260.584,79.2784 261.5,79C 259.431,78.6758 259.098,77.8425 260.5,76.5C 259.5,75.6667 258.5,74.8333 257.5,74C 257.833,73.6667 258.167,73.3333 258.5,73C 256.023,71.295 254.689,69.295 254.5,67C 256.249,64.5625 256.915,62.0625 256.5,59.5 Z"/></g>
<g><path style="opacity:0.043" fill="#050b0f" d="M 333.5,75.5 C 338.632,77.0873 343.298,79.4207 347.5,82.5C 347.407,85.0652 347.073,87.5652 346.5,90C 348.394,91.0793 348.727,92.4126 347.5,94C 348.308,94.3076 348.975,94.8076 349.5,95.5C 350.545,99.087 350.545,103.087 349.5,107.5C 350.128,109.258 351.128,110.758 352.5,112C 351.833,112.667 351.167,113.333 350.5,114C 352.532,118.325 353.865,122.658 354.5,127C 351.833,127.667 351.833,128.333 354.5,129C 353.14,130.938 353.473,132.604 355.5,134C 354.833,134.333 354.167,134.667 353.5,135C 354.571,135.852 355.571,136.685 356.5,137.5C 352.864,140.323 348.864,142.656 344.5,144.5C 344.039,142.45 343.372,140.45 342.5,138.5C 343.668,137.094 343.335,135.928 341.5,135C 342.93,131.111 342.263,127.111 339.5,123C 340.178,120.658 339.845,118.324 338.5,116C 339.167,115.333 339.833,114.667 340.5,114C 339.061,113.009 338.061,111.676 337.5,110C 340.21,107.649 339.877,105.649 336.5,104C 338.891,102.691 338.891,101.691 336.5,101C 335.756,98.5172 335.756,95.8506 336.5,93C 335.833,92.3333 335.167,91.6667 334.5,91C 334.944,89.4667 335.277,87.9667 335.5,86.5C 333.758,82.8127 333.091,79.146 333.5,75.5 Z"/></g>
<g><path style="opacity:0.577" fill="#7acdfd" d="M 110.5,64.5 C 110.75,65.9221 111.583,66.9221 113,67.5C 113.977,66.2264 114.811,66.2264 115.5,67.5C 115.158,68.3382 114.492,68.6716 113.5,68.5C 108.856,69.5995 104.522,71.2661 100.5,73.5C 97.4018,74.2163 94.4018,75.2163 91.5,76.5C 87.6383,78.2619 83.9717,80.2619 80.5,82.5C 78.0202,83.242 75.6869,84.242 73.5,85.5C 71.7085,85.634 70.0418,85.3007 68.5,84.5C 73.7294,80.4669 79.3961,76.9669 85.5,74C 93.6671,70.3342 102,67.1675 110.5,64.5 Z"/></g>
<g><path style="opacity:0.545" fill="#3486be" d="M 91.5,76.5 C 91.7099,80.253 91.7099,84.0863 91.5,88C 92.1667,88.3333 92.8333,88.6667 93.5,89C 94.3107,91.6148 94.3107,94.4481 93.5,97.5C 94.0253,98.1924 94.6919,98.6924 95.5,99C 94.1667,99.6667 94.1667,100.333 95.5,101C 94.8333,101.333 94.1667,101.667 93.5,102C 96.6545,102.981 96.9878,104.315 94.5,106C 95.9211,108.861 96.9211,111.861 97.5,115C 97.7467,118.95 97.7467,122.95 97.5,127C 98.991,129.097 99.991,131.43 100.5,134C 99.5209,135.779 99.8542,137.445 101.5,139C 101.507,140.583 101.174,142.249 100.5,144C 102.891,145.309 102.891,146.309 100.5,147C 101.636,148.53 102.636,149.863 103.5,151C 102.944,151.383 102.611,151.883 102.5,152.5C 98.0834,151.028 93.7501,149.362 89.5,147.5C 90.2376,145.283 90.5709,143.116 90.5,141C 88.6992,140.683 88.3659,140.016 89.5,139C 88.6433,138.311 87.9767,137.478 87.5,136.5C 88.2561,134.549 88.5894,132.716 88.5,131C 86.3956,130.511 86.0622,129.345 87.5,127.5C 85.8657,121.422 84.5324,115.256 83.5,109C 85.9913,108.374 85.9913,107.541 83.5,106.5C 84.8587,104.694 84.5254,103.194 82.5,102C 82.8333,101 83.1667,100 83.5,99C 82.7069,97.9148 82.0402,96.7481 81.5,95.5C 82.4279,94.2322 82.5946,92.8989 82,91.5C 81.3457,92.6956 80.8457,92.6956 80.5,91.5C 81.7237,88.5047 81.7237,85.5047 80.5,82.5C 83.9717,80.2619 87.6383,78.2619 91.5,76.5 Z"/></g>
<g><path style="opacity:0.334" fill="#5290bc" d="M 230.5,78.5 C 236.674,77.4498 243.007,77.4498 249.5,78.5C 249.5,78.8333 249.5,79.1667 249.5,79.5C 249.5,80.5 249.5,81.5 249.5,82.5C 245.321,81.7736 241.321,81.7736 237.5,82.5C 235.66,80.3311 233.326,78.9977 230.5,78.5 Z"/></g>
<g><path style="opacity:1" fill="#a8d2ef" d="M 218.5,77.5 C 219.19,78.8802 219.524,80.2135 219.5,81.5C 222.613,78.8076 226.279,77.8076 230.5,78.5C 233.326,78.9977 235.66,80.3311 237.5,82.5C 237.5,82.8333 237.5,83.1667 237.5,83.5C 217.764,84.1723 197.931,84.839 178,85.5C 177.601,85.2716 177.435,84.9382 177.5,84.5C 177.5,84.1667 177.5,83.8333 177.5,83.5C 179.34,81.3311 181.674,79.9977 184.5,79.5C 191.655,80.6552 198.988,80.8218 206.5,80C 210.956,80.1018 214.956,79.2684 218.5,77.5 Z"/></g>
<g><path style="opacity:0.567" fill="#368ac4" d="M 80.5,82.5 C 81.7237,85.5047 81.7237,88.5047 80.5,91.5C 80.8457,92.6956 81.3457,92.6956 82,91.5C 82.5946,92.8989 82.4279,94.2322 81.5,95.5C 82.0402,96.7481 82.7069,97.9148 83.5,99C 83.1667,100 82.8333,101 82.5,102C 84.5254,103.194 84.8587,104.694 83.5,106.5C 85.9913,107.541 85.9913,108.374 83.5,109C 84.5324,115.256 85.8657,121.422 87.5,127.5C 86.0622,129.345 86.3956,130.511 88.5,131C 88.5894,132.716 88.2561,134.549 87.5,136.5C 87.9767,137.478 88.6433,138.311 89.5,139C 88.3659,140.016 88.6992,140.683 90.5,141C 90.5709,143.116 90.2376,145.283 89.5,147.5C 84.4722,145.324 79.8056,142.657 75.5,139.5C 77.7361,137.986 77.4028,136.486 74.5,135C 75.1138,131.738 75.4471,128.405 75.5,125C 74.373,123.247 73.373,121.413 72.5,119.5C 71.2341,115.19 71.2341,111.357 72.5,108C 70.6646,102.09 68.9979,96.2563 67.5,90.5C 69.5398,88.823 71.5398,87.1563 73.5,85.5C 75.6869,84.242 78.0202,83.242 80.5,82.5 Z"/></g>
<g><path style="opacity:0.367" fill="#244150" d="M 271.5,59.5 C 272.167,59.5 272.833,59.5 273.5,59.5C 275.415,59.2155 277.081,59.5489 278.5,60.5C 276.396,60.2011 274.396,60.5344 272.5,61.5C 273.718,62.8027 273.385,63.8027 271.5,64.5C 272.098,65.7946 272.598,67.1279 273,68.5C 275.795,70.2932 278.295,72.4598 280.5,75C 279.446,76.3876 279.28,77.8876 280,79.5C 285.167,84.8286 289.333,90.8286 292.5,97.5C 290.901,97.2322 289.568,97.5655 288.5,98.5C 277.455,89.6529 264.788,84.6529 250.5,83.5C 250.5,85.1667 250.5,86.8333 250.5,88.5C 246.833,88.5 243.167,88.5 239.5,88.5C 239.88,86.302 239.213,84.6354 237.5,83.5C 237.5,83.1667 237.5,82.8333 237.5,82.5C 241.321,81.7736 245.321,81.7736 249.5,82.5C 249.5,81.5 249.5,80.5 249.5,79.5C 252.86,79.6159 256.193,79.9492 259.5,80.5C 262.273,81.6572 265.273,82.3239 268.5,82.5C 287.164,93.5237 288.831,91.6904 273.5,77C 274.517,75.9505 274.684,74.7839 274,73.5C 272,72.1667 270,70.8333 268,69.5C 267.689,68.2575 268.189,67.2575 269.5,66.5C 268.086,65.376 266.586,64.376 265,63.5C 264.251,62.365 264.417,61.365 265.5,60.5C 266.086,60.7093 266.586,61.0426 267,61.5C 268.049,59.8934 269.549,59.2267 271.5,59.5 Z"/></g>
<g><path style="opacity:1" fill="#90c5e9" d="M 237.5,83.5 C 239.213,84.6354 239.88,86.302 239.5,88.5C 218.167,88.5 196.833,88.5 175.5,88.5C 175.66,86.847 176.326,85.5137 177.5,84.5C 177.435,84.9382 177.601,85.2716 178,85.5C 197.931,84.839 217.764,84.1723 237.5,83.5 Z"/></g>
<g><path style="opacity:0.023" fill="#020608" d="M 347.5,82.5 C 352.186,84.3454 356.52,86.8454 360.5,90C 378.891,107.474 377.558,123.308 356.5,137.5C 355.571,136.685 354.571,135.852 353.5,135C 354.167,134.667 354.833,134.333 355.5,134C 353.473,132.604 353.14,130.938 354.5,129C 351.833,128.333 351.833,127.667 354.5,127C 353.865,122.658 352.532,118.325 350.5,114C 351.167,113.333 351.833,112.667 352.5,112C 351.128,110.758 350.128,109.258 349.5,107.5C 350.545,103.087 350.545,99.087 349.5,95.5C 348.975,94.8076 348.308,94.3076 347.5,94C 348.727,92.4126 348.394,91.0793 346.5,90C 347.073,87.5652 347.407,85.0652 347.5,82.5 Z"/></g>
<g><path style="opacity:0.452" fill="#3375a4" d="M 143.5,61.5 C 141.347,64.0623 141.014,66.8956 142.5,70C 140.44,72.0341 140.774,74.0341 143.5,76C 140.825,78.9101 138.491,82.5767 136.5,87C 138.452,88.4119 139.785,90.2453 140.5,92.5C 131.533,99.1472 131.2,106.314 139.5,114C 142.727,116.112 146.06,117.945 149.5,119.5C 149.5,119.833 149.5,120.167 149.5,120.5C 150.877,124.92 153.044,128.92 156,132.5C 157.008,132.982 158.175,133.148 159.5,133C 159.167,133.333 158.833,133.667 158.5,134C 160.183,136.014 162.183,137.68 164.5,139C 163.94,140.62 162.607,142.12 160.5,143.5C 159.788,145.928 158.788,148.261 157.5,150.5C 158.55,152.102 157.883,152.935 155.5,153C 155.964,157.594 155.964,161.76 155.5,165.5C 154.167,165.167 152.833,164.833 151.5,164.5C 146.111,163.755 140.778,162.755 135.5,161.5C 135.918,160.778 136.584,160.278 137.5,160C 135.521,156.123 134.855,152.123 135.5,148C 133.854,146.445 133.521,144.779 134.5,143C 132.153,141.419 132.153,140.086 134.5,139C 133.724,135.384 133.724,132.05 134.5,129C 131.833,127.667 131.833,126.333 134.5,125C 133.427,123.406 132.427,121.906 131.5,120.5C 132.441,120.511 133.108,120.011 133.5,119C 133.087,117.204 133.087,115.537 133.5,114C 131.901,112.934 130.901,111.434 130.5,109.5C 130.218,106.744 130.218,103.911 130.5,101C 129.044,98.7342 128.21,96.2342 128,93.5C 127.667,93.8333 127.333,94.1667 127,94.5C 126.691,93.2341 126.191,92.0674 125.5,91C 125.411,89.2839 125.744,87.4506 126.5,85.5C 125.049,84.094 123.716,82.594 122.5,81C 123.86,79.0624 123.527,77.3957 121.5,76C 121.678,73.0454 121.678,69.8788 121.5,66.5C 128.694,64.3273 136.027,62.6606 143.5,61.5 Z"/></g>
<g><path style="opacity:0.12" fill="#1a2c38" d="M 286.5,61.5 C 287.791,61.2627 288.791,61.596 289.5,62.5C 288.761,62.369 288.094,62.5357 287.5,63C 290.666,65.0001 293.332,67.5001 295.5,70.5C 295.414,71.4959 295.748,72.3292 296.5,73C 294.109,73.6914 294.109,74.6914 296.5,76C 295.692,76.3076 295.025,76.8076 294.5,77.5C 295.131,79.478 295.131,81.6446 294.5,84C 305.199,103.176 305.032,122.343 294,141.5C 292.483,143.24 290.983,144.906 289.5,146.5C 288.736,144.618 288.569,142.284 289,139.5C 298.304,124.716 299.971,109.049 294,92.5C 291.611,87.4459 288.445,82.9459 284.5,79C 286.032,78.3005 287.032,77.1338 287.5,75.5C 283.033,71.4709 282.7,66.8042 286.5,61.5 Z"/></g>
<g><path style="opacity:0.14" fill="#213644" d="M 278.5,60.5 C 280.167,60.5 281.833,60.5 283.5,60.5C 283.833,60.5 284.167,60.5 284.5,60.5C 284.842,61.3382 285.508,61.6716 286.5,61.5C 282.7,66.8042 283.033,71.4709 287.5,75.5C 287.032,77.1338 286.032,78.3005 284.5,79C 288.445,82.9459 291.611,87.4459 294,92.5C 299.971,109.049 298.304,124.716 289,139.5C 288.569,142.284 288.736,144.618 289.5,146.5C 287.523,148.814 285.523,151.147 283.5,153.5C 283.623,155.378 283.623,157.211 283.5,159C 284.167,159.333 284.833,159.667 285.5,160C 284.226,160.977 284.226,161.811 285.5,162.5C 276.091,164.748 266.425,166.082 256.5,166.5C 257.347,165.034 258.68,164.2 260.5,164C 259.044,160.656 260.544,158.49 265,157.5C 265.492,156.451 265.326,155.451 264.5,154.5C 266.583,153.041 268.75,151.708 271,150.5C 271.333,149.167 271.667,147.833 272,146.5C 273.771,145.696 275.271,144.529 276.5,143C 275.944,142.617 275.611,142.117 275.5,141.5C 281.708,135.254 285.708,127.754 287.5,119C 287.352,117.744 287.018,116.577 286.5,115.5C 293.055,112.057 295.555,106.724 294,99.5C 293.722,98.5842 293.222,97.9175 292.5,97.5C 289.333,90.8286 285.167,84.8286 280,79.5C 279.28,77.8876 279.446,76.3876 280.5,75C 278.295,72.4598 275.795,70.2932 273,68.5C 272.598,67.1279 272.098,65.7946 271.5,64.5C 273.385,63.8027 273.718,62.8027 272.5,61.5C 274.396,60.5344 276.396,60.2011 278.5,60.5 Z"/></g>
<g><path style="opacity:0.578" fill="#388eca" d="M 67.5,90.5 C 68.9979,96.2563 70.6646,102.09 72.5,108C 71.2341,111.357 71.2341,115.19 72.5,119.5C 73.373,121.413 74.373,123.247 75.5,125C 75.4471,128.405 75.1138,131.738 74.5,135C 77.4028,136.486 77.7361,137.986 75.5,139.5C 65.3189,134.656 58.3189,126.989 54.5,116.5C 54.3801,105.616 58.7135,96.9498 67.5,90.5 Z"/></g>
<g><path style="opacity:1" fill="#76b5e2" d="M 175.5,88.5 C 196.833,88.5 218.167,88.5 239.5,88.5C 243.167,88.5 246.833,88.5 250.5,88.5C 252.674,88.7497 254.341,89.7497 255.5,91.5C 229.005,92.4979 202.339,92.8312 175.5,92.5C 175.5,91.1667 175.5,89.8333 175.5,88.5 Z"/></g>
<g><path style="opacity:1" fill="#12181f" d="M 288.5,98.5 C 288.833,99.1667 289.167,99.8333 289.5,100.5C 289.217,101.289 288.717,101.956 288,102.5C 277.773,98.905 267.607,96.2383 257.5,94.5C 257.672,93.5084 257.338,92.8417 256.5,92.5C 256.5,91.8333 256.167,91.5 255.5,91.5C 254.341,89.7497 252.674,88.7497 250.5,88.5C 250.5,86.8333 250.5,85.1667 250.5,83.5C 264.788,84.6529 277.455,89.6529 288.5,98.5 Z"/></g>
<g><path style="opacity:0.474" fill="#3179ab" d="M 121.5,66.5 C 121.678,69.8788 121.678,73.0454 121.5,76C 123.527,77.3957 123.86,79.0624 122.5,81C 123.716,82.594 125.049,84.094 126.5,85.5C 125.744,87.4506 125.411,89.2839 125.5,91C 126.191,92.0674 126.691,93.2341 127,94.5C 127.333,94.1667 127.667,93.8333 128,93.5C 128.21,96.2342 129.044,98.7342 130.5,101C 130.218,103.911 130.218,106.744 130.5,109.5C 130.901,111.434 131.901,112.934 133.5,114C 133.087,115.537 133.087,117.204 133.5,119C 133.108,120.011 132.441,120.511 131.5,120.5C 132.427,121.906 133.427,123.406 134.5,125C 131.833,126.333 131.833,127.667 134.5,129C 133.724,132.05 133.724,135.384 134.5,139C 132.153,140.086 132.153,141.419 134.5,143C 133.521,144.779 133.854,146.445 135.5,148C 134.855,152.123 135.521,156.123 137.5,160C 136.584,160.278 135.918,160.778 135.5,161.5C 132.097,161.149 128.763,160.482 125.5,159.5C 124.268,153.036 124.268,146.536 125.5,140C 124.833,139.667 124.167,139.333 123.5,139C 123.833,138 124.167,137 124.5,136C 123.872,133.391 122.872,130.725 121.5,128C 121.833,125.667 122.167,123.333 122.5,121C 121.426,120.261 120.759,119.261 120.5,118C 121.752,115.804 121.419,113.804 119.5,112C 119.745,109.911 119.745,107.911 119.5,106C 117.897,103.461 116.564,100.794 115.5,98C 116.488,95.5801 116.155,93.2467 114.5,91C 114.196,88.3625 114.196,85.6958 114.5,83C 114.245,81.6739 113.578,80.6739 112.5,80C 112.807,78.3182 113.14,76.6515 113.5,75C 113.241,73.7387 112.574,72.7387 111.5,72C 112.305,70.8873 112.972,69.7206 113.5,68.5C 114.492,68.6716 115.158,68.3382 115.5,67.5C 117.5,67.1667 119.5,66.8333 121.5,66.5 Z"/></g>
<g><path style="opacity:1" fill="#151d27" d="M 173.5,83.5 C 174.833,83.5 176.167,83.5 177.5,83.5C 177.5,83.8333 177.5,84.1667 177.5,84.5C 176.326,85.5137 175.66,86.847 175.5,88.5C 174.566,89.5676 174.232,90.901 174.5,92.5C 172.585,92.2155 170.919,92.5489 169.5,93.5C 168.094,93.9731 167.427,94.9731 167.5,96.5C 166.691,98.2922 166.191,100.292 166,102.5C 165.667,102.167 165.333,101.833 165,101.5C 160.224,103.593 155.391,105.593 150.5,107.5C 149.554,107.013 148.554,106.68 147.5,106.5C 145.238,107.467 142.905,108.134 140.5,108.5C 136.729,105.095 136.562,101.428 140,97.5C 144.785,93.8571 149.951,90.8571 155.5,88.5C 160.457,87.0107 165.457,85.6773 170.5,84.5C 171.391,83.8902 172.391,83.5569 173.5,83.5 Z"/></g>
<g><path style="opacity:1" fill="#59a5da" d="M 175.5,88.5 C 175.5,89.8333 175.5,91.1667 175.5,92.5C 202.339,92.8312 229.005,92.4979 255.5,91.5C 256.167,91.5 256.5,91.8333 256.5,92.5C 256.5,93.8333 256.5,95.1667 256.5,96.5C 227.165,96.6666 197.831,96.5 168.5,96C 170.619,95.6582 170.953,94.8249 169.5,93.5C 170.919,92.5489 172.585,92.2155 174.5,92.5C 174.232,90.901 174.566,89.5676 175.5,88.5 Z"/></g>
<g><path style="opacity:1" fill="#3690cf" d="M 256.5,92.5 C 257.338,92.8417 257.672,93.5084 257.5,94.5C 257.5,95.5 257.5,96.5 257.5,97.5C 256.41,99.7611 254.744,101.594 252.5,103C 224.833,103.667 197.167,103.667 169.5,103C 168.956,102.283 168.289,101.783 167.5,101.5C 167.5,99.8333 167.5,98.1667 167.5,96.5C 167.427,94.9731 168.094,93.9731 169.5,93.5C 170.953,94.8249 170.619,95.6582 168.5,96C 197.831,96.5 227.165,96.6666 256.5,96.5C 256.5,95.1667 256.5,93.8333 256.5,92.5 Z"/></g>
<g><path style="opacity:1" fill="#1d5b87" d="M 257.5,97.5 C 257.483,99.5648 257.15,101.565 256.5,103.5C 254.887,105.27 252.887,106.436 250.5,107C 223.5,107.667 196.5,107.667 169.5,107C 167.845,105.556 167.178,103.722 167.5,101.5C 168.289,101.783 168.956,102.283 169.5,103C 197.167,103.667 224.833,103.667 252.5,103C 254.744,101.594 256.41,99.7611 257.5,97.5 Z"/></g>
<g><path style="opacity:0.263" fill="#78cdff" d="M 26.5,74.5 C 26.5,75.1667 26.8333,75.5 27.5,75.5C 18.9037,80.9284 11.737,87.9284 6,96.5C 4.44089e-16,107.833 4.44089e-16,119.167 6,130.5C 6.94873,132.093 8.11539,133.426 9.5,134.5C 9.16667,135.5 8.5,136.167 7.5,136.5C 4.02378,131.878 1.35711,126.878 -0.5,121.5C -0.5,116.167 -0.5,110.833 -0.5,105.5C 4.53955,91.7889 13.5395,81.4555 26.5,74.5 Z"/></g>
<g><path style="opacity:1" fill="#192534" d="M 257.5,94.5 C 267.607,96.2383 277.773,98.905 288,102.5C 288.717,101.956 289.217,101.289 289.5,100.5C 289.896,107.828 286.229,112.495 278.5,114.5C 276.403,114.003 274.57,113.67 273,113.5C 272.311,114.357 271.478,115.023 270.5,115.5C 269.52,114.019 268.353,112.685 267,111.5C 266.086,112.654 265.253,112.487 264.5,111C 266.301,110.683 266.634,110.016 265.5,109C 261.844,108.175 258.844,106.342 256.5,103.5C 257.15,101.565 257.483,99.5648 257.5,97.5C 257.5,96.5 257.5,95.5 257.5,94.5 Z"/></g>
<g><path style="opacity:1" fill="#222f3f" d="M 167.5,96.5 C 167.5,98.1667 167.5,99.8333 167.5,101.5C 167.178,103.722 167.845,105.556 169.5,107C 196.5,107.667 223.5,107.667 250.5,107C 252.887,106.436 254.887,105.27 256.5,103.5C 258.844,106.342 261.844,108.175 265.5,109C 266.634,110.016 266.301,110.683 264.5,111C 265.253,112.487 266.086,112.654 267,111.5C 268.353,112.685 269.52,114.019 270.5,115.5C 271.478,115.023 272.311,114.357 273,113.5C 274.57,113.67 276.403,114.003 278.5,114.5C 276.574,116.293 274.241,117.293 271.5,117.5C 260.807,114.909 249.974,112.909 239,111.5C 234.055,112.675 228.888,112.342 223.5,110.5C 211.687,111.814 200.187,111.814 189,110.5C 183.672,111.266 178.339,112.6 173,114.5C 171.274,113.424 169.441,113.257 167.5,114C 163.858,115.731 160.191,116.898 156.5,117.5C 150.23,116.035 144.896,113.035 140.5,108.5C 142.905,108.134 145.238,107.467 147.5,106.5C 148.554,106.68 149.554,107.013 150.5,107.5C 155.391,105.593 160.224,103.593 165,101.5C 165.333,101.833 165.667,102.167 166,102.5C 166.191,100.292 166.691,98.2922 167.5,96.5 Z"/></g>
<g><path style="opacity:0.741" fill="#1c5a79" d="M 155.5,88.5 C 149.951,90.8571 144.785,93.8571 140,97.5C 136.562,101.428 136.729,105.095 140.5,108.5C 144.896,113.035 150.23,116.035 156.5,117.5C 156.5,117.833 156.5,118.167 156.5,118.5C 154.139,118.674 151.806,119.007 149.5,119.5C 146.06,117.945 142.727,116.112 139.5,114C 131.2,106.314 131.533,99.1472 140.5,92.5C 145.031,88.8268 150.031,87.4934 155.5,88.5 Z"/></g>
<g><path style="opacity:0.828" fill="#4fbcfe" d="M 68.5,84.5 C 70.0418,85.3007 71.7085,85.634 73.5,85.5C 71.5398,87.1563 69.5398,88.823 67.5,90.5C 58.7135,96.9498 54.3801,105.616 54.5,116.5C 54.4373,119.195 53.4373,120.195 51.5,119.5C 49.1969,110.898 50.6969,102.898 56,95.5C 59.7417,91.2525 63.9083,87.5859 68.5,84.5 Z"/></g>
<g><path style="opacity:1" fill="#28394d" d="M 271.5,117.5 C 251.499,124.086 230.832,127.086 209.5,126.5C 191.418,126.393 173.752,123.727 156.5,118.5C 156.5,118.167 156.5,117.833 156.5,117.5C 160.191,116.898 163.858,115.731 167.5,114C 169.441,113.257 171.274,113.424 173,114.5C 178.339,112.6 183.672,111.266 189,110.5C 200.187,111.814 211.687,111.814 223.5,110.5C 228.888,112.342 234.055,112.675 239,111.5C 249.974,112.909 260.807,114.909 271.5,117.5 Z"/></g>
<g><path style="opacity:0.964" fill="#167999" d="M 292.5,97.5 C 293.222,97.9175 293.722,98.5842 294,99.5C 295.555,106.724 293.055,112.057 286.5,115.5C 282.993,117.754 279.327,119.754 275.5,121.5C 253.756,128.657 231.423,131.657 208.5,130.5C 188.204,130.697 168.538,127.363 149.5,120.5C 149.5,120.167 149.5,119.833 149.5,119.5C 151.806,119.007 154.139,118.674 156.5,118.5C 173.752,123.727 191.418,126.393 209.5,126.5C 230.832,127.086 251.499,124.086 271.5,117.5C 274.241,117.293 276.574,116.293 278.5,114.5C 286.229,112.495 289.896,107.828 289.5,100.5C 289.167,99.8333 288.833,99.1667 288.5,98.5C 289.568,97.5655 290.901,97.2322 292.5,97.5 Z"/></g>
<g><path style="opacity:0.138" fill="#142633" d="M 295.5,70.5 C 299.048,73.9059 301.882,77.9059 304,82.5C 307.542,91.8346 309.376,101.501 309.5,111.5C 310.014,128.141 305.014,142.807 294.5,155.5C 294.977,156.478 295.643,157.311 296.5,158C 295.748,158.671 295.414,159.504 295.5,160.5C 292.411,161.785 289.078,162.451 285.5,162.5C 284.226,161.811 284.226,160.977 285.5,160C 284.833,159.667 284.167,159.333 283.5,159C 283.623,157.211 283.623,155.378 283.5,153.5C 285.523,151.147 287.523,148.814 289.5,146.5C 290.983,144.906 292.483,143.24 294,141.5C 305.032,122.343 305.199,103.176 294.5,84C 295.131,81.6446 295.131,79.478 294.5,77.5C 295.025,76.8076 295.692,76.3076 296.5,76C 294.109,74.6914 294.109,73.6914 296.5,73C 295.748,72.3292 295.414,71.4959 295.5,70.5 Z"/></g>
<g><path style="opacity:0.482" fill="#2f8ed0" d="M 9.5,134.5 C 18.1667,133.167 21.8333,136.833 20.5,145.5C 19.5,145.833 18.8333,146.5 18.5,147.5C 8.5,150.167 4.83333,146.5 7.5,136.5C 8.5,136.167 9.16667,135.5 9.5,134.5 Z"/></g>
<g><path style="opacity:0.418" fill="#417498" d="M 149.5,120.5 C 168.538,127.363 188.204,130.697 208.5,130.5C 206.432,131.375 204.432,132.541 202.5,134C 205.638,135.244 208.972,135.911 212.5,136C 210.563,136.122 209.23,136.955 208.5,138.5C 205.402,138.413 205.068,138.913 207.5,140C 202.107,141.327 197.441,143.827 193.5,147.5C 184.982,148.501 175.815,147.168 166,143.5C 164.174,144.673 162.341,144.673 160.5,143.5C 162.607,142.12 163.94,140.62 164.5,139C 162.183,137.68 160.183,136.014 158.5,134C 158.833,133.667 159.167,133.333 159.5,133C 158.175,133.148 157.008,132.982 156,132.5C 153.044,128.92 150.877,124.92 149.5,120.5 Z"/></g>
<g><path style="opacity:0.29" fill="#486579" d="M 275.5,121.5 C 271.215,127.785 265.882,133.118 259.5,137.5C 248.252,141.843 236.585,143.677 224.5,143C 226.255,142.28 227.089,141.113 227,139.5C 224.149,140.244 221.483,140.244 219,139.5C 216.891,142.28 215.058,142.113 213.5,139C 211.658,139.068 209.991,138.901 208.5,138.5C 209.23,136.955 210.563,136.122 212.5,136C 208.972,135.911 205.638,135.244 202.5,134C 204.432,132.541 206.432,131.375 208.5,130.5C 231.423,131.657 253.756,128.657 275.5,121.5 Z"/></g>
<g><path style="opacity:0.22" fill="#334b5c" d="M 286.5,115.5 C 287.018,116.577 287.352,117.744 287.5,119C 285.708,127.754 281.708,135.254 275.5,141.5C 266.854,147.991 257.188,151.825 246.5,153C 250.825,150.011 255.159,147.011 259.5,144C 259.387,142.72 258.72,141.887 257.5,141.5C 256.264,142.246 254.93,142.579 253.5,142.5C 253.062,142.565 252.728,142.399 252.5,142C 254.459,141.069 256.459,140.236 258.5,139.5C 259.298,139.043 259.631,138.376 259.5,137.5C 265.882,133.118 271.215,127.785 275.5,121.5C 279.327,119.754 282.993,117.754 286.5,115.5 Z"/></g>
<g><path style="opacity:0.866" fill="#27a5fa" d="M 54.5,116.5 C 58.3189,126.989 65.3189,134.656 75.5,139.5C 79.8056,142.657 84.4722,145.324 89.5,147.5C 93.7501,149.362 98.0834,151.028 102.5,152.5C 105.986,154.106 109.653,155.106 113.5,155.5C 117.195,157.432 121.195,158.765 125.5,159.5C 125.267,161.062 124.6,162.395 123.5,163.5C 105.416,159.79 88.4161,153.29 72.5,144C 66.4071,139.911 60.9071,135.078 56,129.5C 53.676,126.52 52.176,123.187 51.5,119.5C 53.4373,120.195 54.4373,119.195 54.5,116.5 Z"/></g>
<g><path style="opacity:0.395" fill="#2f6991" d="M 160.5,143.5 C 162.341,144.673 164.174,144.673 166,143.5C 175.815,147.168 184.982,148.501 193.5,147.5C 192.967,149.641 191.3,151.475 188.5,153C 188.833,153.333 189.167,153.667 189.5,154C 187.114,154.284 186.448,155.284 187.5,157C 186.5,158 185.5,159 184.5,160C 186.994,162.393 186.327,163.56 182.5,163.5C 182.5,164.833 182.5,166.167 182.5,167.5C 181.167,167.5 179.833,167.5 178.5,167.5C 175.167,167.5 171.833,167.5 168.5,167.5C 164.343,166.551 160.01,165.884 155.5,165.5C 155.964,161.76 155.964,157.594 155.5,153C 157.883,152.935 158.55,152.102 157.5,150.5C 158.788,148.261 159.788,145.928 160.5,143.5 Z"/></g>
<g><path style="opacity:0.356" fill="#305d7d" d="M 259.5,137.5 C 259.631,138.376 259.298,139.043 258.5,139.5C 256.459,140.236 254.459,141.069 252.5,142C 252.728,142.399 253.062,142.565 253.5,142.5C 247.55,145.478 241.883,148.978 236.5,153C 236.833,153.333 237.167,153.667 237.5,154C 230.897,155.163 224.23,155.83 217.5,156C 217.833,156.333 218.167,156.667 218.5,157C 216.833,157.333 215.167,157.667 213.5,158C 212.167,158.667 212.167,159.333 213.5,160C 211.627,161.085 209.96,162.418 208.5,164C 209.125,165.64 209.125,167.473 208.5,169.5C 207.167,169.5 205.833,169.5 204.5,169.5C 203.5,169.5 202.5,169.5 201.5,169.5C 196.5,169.5 191.5,169.5 186.5,169.5C 184.052,168.527 181.385,168.194 178.5,168.5C 178.5,168.167 178.5,167.833 178.5,167.5C 179.833,167.5 181.167,167.5 182.5,167.5C 182.5,166.167 182.5,164.833 182.5,163.5C 186.327,163.56 186.994,162.393 184.5,160C 185.5,159 186.5,158 187.5,157C 186.448,155.284 187.114,154.284 189.5,154C 189.167,153.667 188.833,153.333 188.5,153C 191.3,151.475 192.967,149.641 193.5,147.5C 197.441,143.827 202.107,141.327 207.5,140C 205.068,138.913 205.402,138.413 208.5,138.5C 209.991,138.901 211.658,139.068 213.5,139C 215.058,142.113 216.891,142.28 219,139.5C 221.483,140.244 224.149,140.244 227,139.5C 227.089,141.113 226.255,142.28 224.5,143C 236.585,143.677 248.252,141.843 259.5,137.5 Z"/></g>
<g><path style="opacity:0.505" fill="#e18d26" d="M 386.5,159.5 C 386.5,160.167 386.833,160.5 387.5,160.5C 390.404,169.763 387.07,173.596 377.5,172C 375.859,170.871 374.859,169.371 374.5,167.5C 374.5,166.833 374.5,166.167 374.5,165.5C 374.081,162.675 375.081,160.509 377.5,159C 380.592,158.264 383.592,158.431 386.5,159.5 Z"/></g>
<g><path style="opacity:0.265" fill="#254963" d="M 275.5,141.5 C 275.611,142.117 275.944,142.617 276.5,143C 275.271,144.529 273.771,145.696 272,146.5C 271.667,147.833 271.333,149.167 271,150.5C 268.75,151.708 266.583,153.041 264.5,154.5C 265.326,155.451 265.492,156.451 265,157.5C 260.544,158.49 259.044,160.656 260.5,164C 258.68,164.2 257.347,165.034 256.5,166.5C 252.5,167.167 248.5,167.833 244.5,168.5C 232.508,169.075 220.508,169.409 208.5,169.5C 209.125,167.473 209.125,165.64 208.5,164C 209.96,162.418 211.627,161.085 213.5,160C 212.167,159.333 212.167,158.667 213.5,158C 215.167,157.667 216.833,157.333 218.5,157C 218.167,156.667 217.833,156.333 217.5,156C 224.23,155.83 230.897,155.163 237.5,154C 237.167,153.667 236.833,153.333 236.5,153C 241.883,148.978 247.55,145.478 253.5,142.5C 254.93,142.579 256.264,142.246 257.5,141.5C 258.72,141.887 259.387,142.72 259.5,144C 255.159,147.011 250.825,150.011 246.5,153C 257.188,151.825 266.854,147.991 275.5,141.5 Z"/></g>
<g><path style="opacity:0.531" fill="#3094d3" d="M 125.5,159.5 C 128.763,160.482 132.097,161.149 135.5,161.5C 140.778,162.755 146.111,163.755 151.5,164.5C 150.5,165.833 149.5,167.167 148.5,168.5C 139.982,167.619 131.648,165.952 123.5,163.5C 124.6,162.395 125.267,161.062 125.5,159.5 Z"/></g>
<g><path style="opacity:0.409" fill="#648b94" d="M 168.5,167.5 C 171.833,167.5 175.167,167.5 178.5,167.5C 178.5,167.833 178.5,168.167 178.5,168.5C 174.823,170.453 170.823,171.453 166.5,171.5C 164.585,171.784 162.919,171.451 161.5,170.5C 164.453,170.85 166.787,169.85 168.5,167.5 Z"/></g>
<g><path style="opacity:0.308" fill="#488db1" d="M 151.5,164.5 C 152.833,164.833 154.167,165.167 155.5,165.5C 160.01,165.884 164.343,166.551 168.5,167.5C 166.787,169.85 164.453,170.85 161.5,170.5C 157.048,170.369 152.714,169.702 148.5,168.5C 149.5,167.167 150.5,165.833 151.5,164.5 Z"/></g>
<g><path style="opacity:0.216" fill="#929e93" d="M 178.5,168.5 C 181.385,168.194 184.052,168.527 186.5,169.5C 184.891,170.665 184.557,171.999 185.5,173.5C 178.938,173.663 172.605,172.996 166.5,171.5C 170.823,171.453 174.823,170.453 178.5,168.5 Z"/></g>
<g><path style="opacity:0.004" fill="#fefffe" d="M 201.5,169.5 C 202.5,169.5 203.5,169.5 204.5,169.5C 204.082,170.222 203.416,170.722 202.5,171C 202.957,171.414 203.291,171.914 203.5,172.5C 213.144,173.498 222.81,173.832 232.5,173.5C 218.5,174.833 204.5,174.833 190.5,173.5C 193.833,173.5 197.167,173.5 200.5,173.5C 200.433,172.041 200.766,170.708 201.5,169.5 Z"/></g>
<g><path style="opacity:0.264" fill="#c8994f" d="M 244.5,168.5 C 247.898,168.18 251.232,168.513 254.5,169.5C 255.243,170.182 255.909,170.849 256.5,171.5C 248.729,173.155 240.729,173.822 232.5,173.5C 222.81,173.832 213.144,173.498 203.5,172.5C 203.291,171.914 202.957,171.414 202.5,171C 203.416,170.722 204.082,170.222 204.5,169.5C 205.833,169.5 207.167,169.5 208.5,169.5C 220.508,169.409 232.508,169.075 244.5,168.5 Z"/></g>
<g><path style="opacity:0.024" fill="#a8966f" d="M 186.5,169.5 C 191.5,169.5 196.5,169.5 201.5,169.5C 200.766,170.708 200.433,172.041 200.5,173.5C 197.167,173.5 193.833,173.5 190.5,173.5C 188.833,173.5 187.167,173.5 185.5,173.5C 184.557,171.999 184.891,170.665 186.5,169.5 Z"/></g>
<g><path style="opacity:0.233" fill="#2facfe" d="M 20.5,145.5 C 33.2637,155.888 47.597,163.721 63.5,169C 84.2559,175.938 105.256,181.438 126.5,185.5C 125.833,185.5 125.5,185.833 125.5,186.5C 92.7726,182.069 61.7726,172.236 32.5,157C 27.6315,154.071 22.9648,150.904 18.5,147.5C 18.8333,146.5 19.5,145.833 20.5,145.5 Z"/></g>
<g><path style="opacity:0.075" fill="#d8b262" d="M 374.5,165.5 C 374.5,166.167 374.5,166.833 374.5,167.5C 340.262,180.215 304.929,188.215 268.5,191.5C 268.5,190.833 268.5,190.167 268.5,189.5C 304.939,186.213 340.273,178.213 374.5,165.5 Z"/></g>
<g><path style="opacity:0.502" fill="#2d8dce" d="M 126.5,185.5 C 133.763,186.085 140.93,187.085 148,188.5C 150.909,185.606 154.409,184.773 158.5,186C 159.71,187.039 160.71,188.206 161.5,189.5C 161.5,190.167 161.5,190.833 161.5,191.5C 161.984,194.788 160.984,197.455 158.5,199.5C 155.833,199.5 153.167,199.5 150.5,199.5C 148.178,196.808 146.845,193.641 146.5,190C 139.307,189.142 132.307,187.976 125.5,186.5C 125.5,185.833 125.833,185.5 126.5,185.5 Z"/></g>
<g><path style="opacity:0.148" fill="#5e8995" d="M 161.5,189.5 C 168.232,189.98 174.899,190.646 181.5,191.5C 181.5,192.167 181.5,192.833 181.5,193.5C 174.899,192.646 168.232,191.98 161.5,191.5C 161.5,190.833 161.5,190.167 161.5,189.5 Z"/></g>
<g><path style="opacity:0.02" fill="#8c8360" d="M 181.5,191.5 C 220.118,192.826 220.118,193.493 181.5,193.5C 181.5,192.833 181.5,192.167 181.5,191.5 Z"/></g>
<g><path style="opacity:0.007" fill="#c18d40" d="M 268.5,189.5 C 268.5,190.167 268.5,190.833 268.5,191.5C 252.193,192.954 235.86,193.454 219.5,193C 235.846,191.912 252.179,190.746 268.5,189.5 Z"/></g>
</svg>
