<?xml version="1.0" standalone="no"?><!DOCTYPE svg PUBLIC "-//W3C//DTD SVG 1.1//EN" "http://www.w3.org/Graphics/SVG/1.1/DTD/svg11.dtd"><svg t="1703779036253" class="icon" viewBox="0 0 1024 1024" version="1.1" xmlns="http://www.w3.org/2000/svg" p-id="4322" xmlns:xlink="http://www.w3.org/1999/xlink" width="16" height="16"><path d="M0 512c0 282.752 229.248 512 512 512s512-229.248 512-512-229.248-512-512-512S0 229.248 0 512zM896 512c0 212.032-171.968 384-384 384s-384-171.968-384-384 171.968-384 384-384S896 299.968 896 512zM274.688 466.752 402.688 338.752C420.992 320.512 448.512 315.008 472.512 324.864 496.384 334.72 512 358.144 512 384L512 448 704 448C739.392 448 768 476.608 768 512 768 547.392 739.392 576 704 576L512 576 512 640C512 665.856 496.384 689.28 472.512 699.136 448.576 708.992 420.992 703.552 402.688 685.248L274.688 557.248C262.208 544.768 255.936 528.384 255.936 512 255.936 495.616 262.208 479.232 274.688 466.752Z" fill="#ffffff" p-id="4323"></path></svg>